<svg xmlns="http://www.w3.org/2000/svg" viewBox="0 0 55 55"><path fill="#8C8C8C" d="M9.5 54 20 34l3.5.2L18 45.1l21.2-16H.5s-.3 0-.5-.4c-.1-.5.2-.7.2-.7L38.8.2s.4-.3.7-.1c.3.2.2.5.2.5L29.3 21.5l-3.7.1 6-12.1L8.6 26h39s.3 0 .5.4l-.2.6-37.5 27.6s-.3.2-.6 0c-.4-.3-.2-.6-.2-.6Z"/><path fill="#8C8C8C" d="M10.2 22V10.8h18.1l4.5-3H7.5c-.3 0-.3.3-.3.3v16l3-2Zm25.9-11.2c2 0 3.5 2.1 3.5 4 0 2-1.6 4.2-3.5 4.2h-9l-1.5 2.6s-.2.5.2.5h10.3c3.6 0 6.6-3.5 6.6-7.2s-3-7.2-6.6-7.2h-3l-.7 3.1H36Zm-3-3.2-.3.1h.3v-.1Zm3 25.8h-2.3l-4.2 3.1H36c2 0 3.6 2.1 3.6 4.1 0 2-1.7 4.1-3.6 4.1H19.5l-4.1 3H36c3.6 0 6.6-2.9 6.6-6.6 0-3.6-3-7.7-6.6-7.7ZM14.3 47.6l1-.9h-.6l-.4.9Zm-4-2.9v-8.2h11.8l1.6-2.5v-.5h-16c-.4 0-.5.4-.5.4v13.5s.1.4.5.4h7l1.4-3.1h-5.8Z"/></svg>