<svg xmlns="http://www.w3.org/2000/svg" viewBox="0 0 482 90">
    <path fill="#595959" d="M18 81V9h27V0H18a9 9 0 0 0-9 9v27l-9 9 9 9v27c0 4.8 4.2 9 9 9h27v-9H18m72 0V9H63V0h27a9 9 0 0 1 9 9v27l9 9-9 9v27c0 4.8-4.2 9-9 9H63v-9h27"/>
    <path fill="#50B7C8" d="M75 20.2 45 50.1l-9.4-9.4-9.4 9.4 18.9 18.8 39.2-39.2-9.4-9.5"/>
    <path fill="#595959" d="M172.7 36.3c1.9 0 3.5.3 4.8 1 1.4.6 2.5 1.5 3.3 2.6a11 11 0 0 1 2 3.7c.3 1.4.5 2.9.5 4.3v18h-7.2V50c0-.8 0-1.6-.2-2.6 0-.9-.3-1.7-.7-2.5-.4-.7-1-1.3-1.7-1.8s-1.6-.7-2.8-.7c-1.1 0-2 .2-2.9.7-.8.5-1.4 1.1-2 1.9a8 8 0 0 0-1 2.5c-.3 1-.4 1.9-.4 2.8V66h-7.2V48.5c0-1.8-.5-3.3-1.3-4.4-.9-1.2-2.2-1.8-4-1.8a5.6 5.6 0 0 0-4.8 2.5c-.5.7-1 1.5-1.2 2.4-.3 1-.4 2-.4 2.9v15.8h-7.2V37.1h6.9v4.7c.4-.8.8-1.4 1.4-2a10 10 0 0 1 4.4-3c1-.4 2-.5 3.2-.5 2.3 0 4.1.5 5.6 1.5a10 10 0 0 1 3.4 4c1-1.8 2.3-3.2 3.9-4.1a11 11 0 0 1 5.6-1.4m46.5 15.6v2h-22a7.1 7.1 0 0 0 2.7 5 9 9 0 0 0 5.6 2 8.6 8.6 0 0 0 7.6-3.7l4.8 3.8c-2.9 3.9-7 5.8-12.4 5.8-2.2 0-4.3-.4-6.2-1-1.8-.8-3.5-1.8-4.9-3a13.4 13.4 0 0 1-3.2-4.8c-.8-1.8-1.2-4-1.2-6.3s.4-4.4 1.2-6.3a14.4 14.4 0 0 1 14-9.1c2 0 4 .3 5.6 1a12 12 0 0 1 4.4 3c1.3 1.2 2.3 2.8 3 4.8.7 2 1 4.2 1 6.8Zm-7.2-3.2a8 8 0 0 0-.4-2.7 6 6 0 0 0-3.4-3.8c-.8-.3-1.8-.5-3-.5-2.1 0-4 .6-5.5 2a7.1 7.1 0 0 0-2.5 5H212ZM255.4 66h-6.8v-4.4h-.1c-1 1.7-2.4 3-4.2 3.9a13.7 13.7 0 0 1-16-3.2c-1.3-1.4-2.2-3-2.9-5a17.7 17.7 0 0 1 0-11.8 13 13 0 0 1 3-4.8 13.5 13.5 0 0 1 18.3-1.4l1.4 1.5h.1V20.6h7.2v45.3Zm-23.7-14.6c0 1.1.2 2.3.6 3.4.3 1 .8 2 1.5 3a7.6 7.6 0 0 0 6.2 3c1.3 0 2.5-.3 3.6-.8 1-.6 1.9-1.3 2.6-2.2a10.2 10.2 0 0 0 0-12.7 9 9 0 0 0-2.6-2 7.8 7.8 0 0 0-7.2 0c-1 .4-2 1.1-2.6 2-.7.9-1.2 1.9-1.6 3a12 12 0 0 0-.5 3.3Zm31.6-24c0-1.2.4-2.2 1.3-3a4 4 0 0 1 3.3-1.4c1.3 0 2.4.4 3.3 1.3a4 4 0 0 1 1.3 3 4 4 0 0 1-1.3 3.1c-1 .9-2 1.3-3.3 1.3a4.4 4.4 0 0 1-4.6-4.3Zm1 9.7h7.2V66h-7.2V37.1Zm33.9 25.2h-.2a8 8 0 0 1-3.5 3.1 12 12 0 0 1-5.5 1.3c-1.1 0-2.3-.2-3.6-.5a11 11 0 0 1-3.5-1.5c-1-.7-2-1.6-2.6-2.8a8 8 0 0 1-1-4.2c0-2.1.5-3.9 1.8-5.1 1.2-1.3 2.8-2.3 4.7-3a52.7 52.7 0 0 1 13.2-1.7v-.7c0-1.8-.6-3.1-2-4a8.2 8.2 0 0 0-4.6-1.3 11.8 11.8 0 0 0-7.9 3.3L280 41c1.6-1.6 3.5-2.7 5.6-3.5a19.3 19.3 0 0 1 12.9 0 9.6 9.6 0 0 1 5.9 6.7c.4 1.4.6 2.9.6 4.3V66h-6.7v-3.6Zm-.2-9.5h-1.6a48 48 0 0 0-3.6.1 16 16 0 0 0-3.6.7c-1 .3-2 .8-2.7 1.4-.7.7-1 1.5-1 2.6a3 3 0 0 0 1.6 2.8c.4.3 1 .5 1.6.6l1.8.2c2.5 0 4.3-.7 5.6-2 1.3-1.3 2-3.1 2-5.4v-1Z"/>
    <path fill="#50B7C8" d="M344.1 33.4a9.7 9.7 0 0 0-4.4-3.3 14.5 14.5 0 0 0-15.9 3.4 14 14 0 0 0-3 5 19 19 0 0 0 0 12.5c.7 1.9 1.6 3.5 2.9 4.9a13 13 0 0 0 4.5 3.2c1.8.8 3.8 1.1 6 1.1s4.3-.4 6-1.3c1.8-1 3.2-2.1 4.3-3.6l6 4.3a19.4 19.4 0 0 1-6.9 5.5 22 22 0 0 1-9.5 2c-3.3 0-6.4-.6-9.1-1.7a21 21 0 0 1-13.6-20.8c0-3.4.6-6.5 1.8-9.2a20.5 20.5 0 0 1 12.1-11.5 26 26 0 0 1 17.7 0l3.8 2c1.2.9 2.2 1.8 3 3l-5.7 4.5m26.8 2.9c1.9 0 3.5.3 4.8 1 1.4.6 2.5 1.5 3.3 2.6a11 11 0 0 1 2 3.7c.3 1.4.5 2.9.5 4.3v18h-7.2V50.1c0-.8 0-1.7-.2-2.6 0-1-.3-1.7-.7-2.5a5 5 0 0 0-1.6-1.8c-.7-.5-1.7-.7-2.8-.7-1.2 0-2.2.2-3 .6-.9.5-1.6 1-2.1 1.8a8 8 0 0 0-1.3 2.5c-.3 1-.4 1.9-.4 2.8V66H355V20.6h7.2v20.6h.1l1.2-1.8a9.7 9.7 0 0 1 7.4-3.1m46.5 15.6v2h-22a7.1 7.1 0 0 0 2.7 5 9 9 0 0 0 5.5 2 8.6 8.6 0 0 0 7.6-3.7l4.9 3.8c-2.9 3.9-7 5.8-12.4 5.8-2.2 0-4.3-.4-6.2-1-1.9-.8-3.5-1.8-4.9-3a13.4 13.4 0 0 1-3.2-4.8c-.8-1.8-1.2-4-1.2-6.3s.4-4.4 1.2-6.3a14.4 14.4 0 0 1 14-9.1c2 0 4 .3 5.6 1a12 12 0 0 1 4.4 3c1.3 1.2 2.2 2.8 3 4.8.6 2 1 4.2 1 6.8Zm-7.2-3.2a8 8 0 0 0-.4-2.7 6 6 0 0 0-3.4-3.8c-.8-.3-1.8-.5-3-.5-2.2 0-4 .6-5.5 2a7.1 7.1 0 0 0-2.5 5h14.8Zm33.8-3.6a7.8 7.8 0 0 0-9.4-2c-1 .5-1.8 1.3-2.5 2.1-.6 1-1.1 1.9-1.5 3a11.8 11.8 0 0 0 0 6.7c.4 1 1 2 1.6 3 .7.8 1.5 1.5 2.6 2 1 .6 2.2.9 3.5.9 1.1 0 2.3-.2 3.4-.7 1.1-.4 2-1 2.7-2l4.5 4.7a12 12 0 0 1-4.6 3 17.8 17.8 0 0 1-12 0 14.3 14.3 0 0 1-9.6-14.3 14.4 14.4 0 0 1 9.5-14.2 16.4 16.4 0 0 1 12 .2 11 11 0 0 1 4.7 3.3L444 45m9.7-24.4h7.2v28.7h.2l11-12.2h9.2l-12.5 13L482.1 66h-9.6l-11.4-14.7h-.2V66h-7.2V20.6"/>
</svg>