<?xml version="1.0" encoding="UTF-8" standalone="no"?>
<svg width="482px" height="90px" viewBox="0 0 482 90" version="1.1" xmlns="http://www.w3.org/2000/svg">
  <g id="mediaCheck">
    <path d="M18,81 L18,9 L45,9 L45,0 L18,0 C13.248,0 9,3.785 9,9 L9,36 L0,45 L9,54 L9,81 C9,85.752 13.248,90 18,90 L45,90 L45,81 L18,81" fill="#595959"></path>
    <path d="M90,81 L90,9 L63,9 L63,0 L90,0 C94.752,0 99,3.785 99,9 L99,36 L108,45 L99,54 L99,81 C99,85.752 94.752,90 90,90 L63,90 L63,81 L90,81" fill="#595959"></path>
    <path d="M74.914,20.24 L45.068,50.087 L35.646,40.664 L26.223,50.087 L45.068,68.933 L84.337,29.663 L74.914,20.24" fill="#50B7C8"></path>
    <path d="M172.7,36.293 C174.58,36.293 176.19,36.623 177.53,37.283 C178.87,37.942 179.97,38.813 180.83,39.893 C181.69,40.973 182.319,42.213 182.72,43.613 C183.119,45.014 183.32,46.453 183.32,47.933 L183.32,65.933 L176.12,65.933 L176.12,49.973 C176.12,49.133 176.06,48.254 175.94,47.333 C175.82,46.413 175.56,45.583 175.16,44.843 C174.76,44.104 174.209,43.493 173.51,43.013 C172.81,42.533 171.88,42.293 170.72,42.293 C169.6,42.293 168.64,42.533 167.84,43.013 C167.039,43.493 166.379,44.113 165.86,44.873 C165.34,45.633 164.96,46.483 164.72,47.423 C164.48,48.363 164.36,49.293 164.36,50.213 L164.36,65.933 L157.16,65.933 L157.16,48.533 C157.16,46.732 156.73,45.243 155.87,44.063 C155.01,42.884 153.659,42.293 151.82,42.293 C150.74,42.293 149.8,42.523 149,42.982 C148.199,43.443 147.55,44.033 147.05,44.753 C146.55,45.473 146.17,46.304 145.91,47.243 C145.649,48.184 145.52,49.133 145.52,50.093 L145.52,65.933 L138.32,65.933 L138.32,37.133 L145.16,37.133 L145.16,41.753 L145.28,41.753 C145.6,41.033 146.03,40.354 146.57,39.713 C147.11,39.073 147.749,38.493 148.49,37.973 C149.23,37.453 150.08,37.043 151.04,36.743 C152,36.442 153.06,36.293 154.22,36.293 C156.46,36.293 158.319,36.794 159.8,37.793 C161.279,38.793 162.419,40.113 163.22,41.753 C164.18,39.993 165.46,38.644 167.06,37.703 C168.659,36.764 170.54,36.293 172.7,36.293" fill="#595959"></path>
    <path d="M219.2,51.893 L219.2,52.852 C219.2,53.174 219.18,53.493 219.141,53.813 L197.24,53.813 C197.32,54.854 197.59,55.803 198.051,56.663 C198.51,57.523 199.12,58.263 199.881,58.883 C200.64,59.504 201.5,59.993 202.46,60.352 C203.42,60.713 204.42,60.893 205.46,60.893 C207.261,60.893 208.78,60.563 210.021,59.903 C211.26,59.243 212.279,58.333 213.08,57.173 L217.881,61.013 C215.04,64.852 210.92,66.773 205.521,66.773 C203.279,66.773 201.22,66.422 199.341,65.723 C197.46,65.023 195.83,64.033 194.45,62.753 C193.07,61.474 191.99,59.903 191.21,58.043 C190.431,56.183 190.04,54.073 190.04,51.713 C190.04,49.394 190.431,47.283 191.21,45.383 C191.99,43.483 193.06,41.863 194.42,40.523 C195.779,39.184 197.391,38.144 199.25,37.403 C201.11,36.663 203.12,36.293 205.28,36.293 C207.28,36.293 209.13,36.623 210.83,37.283 C212.53,37.942 214,38.924 215.24,40.223 C216.479,41.523 217.45,43.144 218.15,45.083 C218.85,47.023 219.2,49.293 219.2,51.893 L219.2,51.893 Z M212,48.653 C212,47.733 211.87,46.852 211.61,46.013 C211.35,45.173 210.94,44.434 210.381,43.793 C209.819,43.153 209.11,42.644 208.25,42.263 C207.39,41.883 206.38,41.692 205.221,41.692 C203.06,41.692 201.23,42.344 199.73,43.643 C198.23,44.943 197.399,46.613 197.24,48.653 L212,48.653 L212,48.653 Z" fill="#595959"></path>
    <path d="M255.44,65.933 L248.6,65.933 L248.6,61.613 L248.479,61.613 C247.479,63.293 246.089,64.573 244.31,65.453 C242.529,66.332 240.62,66.773 238.58,66.773 C236.38,66.773 234.41,66.362 232.67,65.543 C230.93,64.724 229.449,63.623 228.229,62.243 C227.009,60.863 226.07,59.243 225.41,57.383 C224.75,55.523 224.42,53.533 224.42,51.413 C224.42,49.293 224.759,47.313 225.44,45.473 C226.119,43.634 227.079,42.033 228.32,40.673 C229.56,39.314 231.039,38.243 232.76,37.463 C234.479,36.683 236.359,36.293 238.399,36.293 C239.72,36.293 240.899,36.442 241.94,36.743 C242.979,37.043 243.89,37.413 244.67,37.852 C245.45,38.294 246.119,38.773 246.68,39.293 C247.239,39.813 247.7,40.313 248.06,40.793 L248.24,40.793 L248.24,20.573 L255.44,20.573 L255.44,65.933 L255.44,65.933 Z M231.74,51.413 C231.74,52.533 231.909,53.653 232.25,54.773 C232.589,55.894 233.1,56.894 233.78,57.773 C234.46,58.653 235.319,59.373 236.359,59.933 C237.399,60.493 238.619,60.773 240.02,60.773 C241.34,60.773 242.519,60.503 243.56,59.963 C244.6,59.423 245.489,58.713 246.229,57.833 C246.97,56.953 247.529,55.964 247.91,54.863 C248.289,53.763 248.479,52.653 248.479,51.533 C248.479,50.413 248.289,49.293 247.91,48.173 C247.529,47.054 246.97,46.053 246.229,45.173 C245.489,44.294 244.6,43.573 243.56,43.013 C242.519,42.453 241.34,42.173 240.02,42.173 C238.619,42.173 237.399,42.442 236.359,42.982 C235.319,43.523 234.46,44.233 233.78,45.113 C233.1,45.993 232.589,46.983 232.25,48.083 C231.909,49.184 231.74,50.294 231.74,51.413 L231.74,51.413 Z" fill="#595959"></path>
    <path d="M263.299,27.352 C263.299,26.193 263.728,25.184 264.589,24.323 C265.448,23.463 266.539,23.033 267.859,23.033 C269.179,23.033 270.289,23.443 271.189,24.263 C272.089,25.083 272.539,26.113 272.539,27.352 C272.539,28.593 272.089,29.623 271.189,30.442 C270.289,31.263 269.179,31.673 267.859,31.673 C266.539,31.673 265.448,31.243 264.589,30.383 C263.728,29.523 263.299,28.514 263.299,27.352 L263.299,27.352 Z M264.319,37.133 L271.518,37.133 L271.518,65.933 L264.319,65.933 L264.319,37.133 Z" fill="#595959"></path>
    <path d="M298.158,62.273 L297.978,62.273 C297.258,63.554 296.098,64.604 294.498,65.423 C292.897,66.242 291.078,66.653 289.038,66.653 C287.877,66.653 286.668,66.503 285.408,66.203 C284.148,65.903 282.987,65.403 281.928,64.703 C280.868,64.004 279.987,63.083 279.288,61.942 C278.588,60.803 278.238,59.393 278.238,57.713 C278.238,55.553 278.848,53.833 280.068,52.553 C281.288,51.273 282.858,50.294 284.778,49.613 C286.698,48.934 288.828,48.483 291.168,48.263 C293.508,48.044 295.798,47.933 298.038,47.933 L298.038,47.213 C298.038,45.413 297.388,44.083 296.088,43.223 C294.788,42.363 293.238,41.933 291.439,41.933 C289.917,41.933 288.458,42.254 287.058,42.893 C285.657,43.533 284.498,44.313 283.578,45.232 L279.858,40.852 C281.498,39.333 283.388,38.193 285.528,37.433 C287.667,36.674 289.838,36.293 292.038,36.293 C294.598,36.293 296.708,36.653 298.368,37.373 C300.027,38.093 301.338,39.033 302.298,40.192 C303.258,41.354 303.928,42.653 304.308,44.093 C304.687,45.533 304.878,46.973 304.878,48.413 L304.878,65.933 L298.158,65.933 L298.158,62.273 L298.158,62.273 Z M298.038,52.793 L296.418,52.793 C295.258,52.793 294.038,52.844 292.758,52.942 C291.478,53.043 290.298,53.264 289.218,53.602 C288.138,53.943 287.238,54.423 286.518,55.043 C285.798,55.663 285.439,56.513 285.439,57.593 C285.439,58.273 285.588,58.844 285.888,59.303 C286.189,59.763 286.578,60.134 287.058,60.413 C287.538,60.693 288.078,60.893 288.678,61.013 C289.278,61.133 289.878,61.192 290.478,61.192 C292.958,61.192 294.837,60.533 296.118,59.213 C297.397,57.893 298.038,56.093 298.038,53.813 L298.038,52.793 L298.038,52.793 Z" fill="#595959"></path>
    <path d="M344.128,33.413 C343.008,31.894 341.548,30.783 339.748,30.083 C337.948,29.384 336.187,29.033 334.468,29.033 C332.268,29.033 330.269,29.434 328.468,30.232 C326.668,31.033 325.117,32.133 323.818,33.533 C322.518,34.934 321.518,36.573 320.818,38.453 C320.118,40.333 319.769,42.373 319.769,44.573 C319.769,46.894 320.107,49.013 320.788,50.933 C321.468,52.852 322.438,54.503 323.698,55.883 C324.958,57.263 326.468,58.333 328.228,59.093 C329.987,59.854 331.968,60.232 334.168,60.232 C336.448,60.232 338.468,59.783 340.228,58.883 C341.987,57.982 343.408,56.793 344.488,55.313 L350.548,59.573 C348.667,61.934 346.368,63.764 343.648,65.063 C340.928,66.362 337.747,67.013 334.108,67.013 C330.787,67.013 327.737,66.463 324.958,65.363 C322.178,64.263 319.788,62.723 317.788,60.743 C315.787,58.763 314.228,56.403 313.108,53.663 C311.987,50.924 311.428,47.894 311.428,44.573 C311.428,41.174 312.018,38.104 313.198,35.363 C314.378,32.623 315.997,30.293 318.058,28.373 C320.118,26.453 322.548,24.974 325.348,23.933 C328.147,22.894 331.187,22.373 334.468,22.373 C335.827,22.373 337.248,22.503 338.728,22.763 C340.207,23.023 341.628,23.423 342.988,23.963 C344.348,24.503 345.628,25.173 346.828,25.973 C348.028,26.773 349.048,27.733 349.888,28.852 L344.128,33.413" fill="#50B7C8"></path>
    <path d="M370.888,36.293 C372.768,36.293 374.377,36.623 375.718,37.283 C377.058,37.942 378.157,38.813 379.018,39.893 C379.878,40.973 380.508,42.213 380.908,43.613 C381.308,45.014 381.508,46.453 381.508,47.933 L381.508,65.933 L374.308,65.933 L374.308,50.093 C374.308,49.253 374.248,48.383 374.128,47.482 C374.008,46.583 373.758,45.764 373.378,45.023 C372.997,44.283 372.457,43.673 371.758,43.192 C371.058,42.713 370.128,42.473 368.968,42.473 C367.808,42.473 366.808,42.693 365.968,43.133 C365.128,43.573 364.428,44.163 363.868,44.903 C363.308,45.644 362.888,46.474 362.607,47.393 C362.327,48.314 362.187,49.253 362.187,50.213 L362.187,65.933 L354.988,65.933 L354.988,20.573 L362.187,20.573 L362.187,41.153 L362.308,41.153 C362.587,40.553 362.998,39.963 363.538,39.383 C364.078,38.804 364.708,38.283 365.428,37.823 C366.147,37.363 366.967,36.993 367.888,36.713 C368.808,36.434 369.808,36.293 370.888,36.293" fill="#50B7C8"></path>
    <path d="M417.388,51.893 L417.388,52.852 C417.388,53.174 417.367,53.493 417.328,53.813 L395.428,53.813 C395.508,54.854 395.777,55.803 396.238,56.663 C396.697,57.523 397.308,58.263 398.068,58.883 C398.827,59.504 399.687,59.993 400.648,60.352 C401.607,60.713 402.607,60.893 403.648,60.893 C405.448,60.893 406.968,60.563 408.208,59.903 C409.447,59.243 410.467,58.333 411.268,57.173 L416.068,61.013 C413.227,64.852 409.107,66.773 403.708,66.773 C401.467,66.773 399.407,66.422 397.528,65.723 C395.648,65.023 394.018,64.033 392.638,62.753 C391.258,61.474 390.178,59.903 389.398,58.043 C388.618,56.183 388.228,54.073 388.228,51.713 C388.228,49.394 388.618,47.283 389.398,45.383 C390.178,43.483 391.248,41.863 392.607,40.523 C393.967,39.184 395.578,38.144 397.438,37.403 C399.298,36.663 401.308,36.293 403.468,36.293 C405.468,36.293 407.317,36.623 409.018,37.283 C410.718,37.942 412.187,38.924 413.428,40.223 C414.667,41.523 415.638,43.144 416.338,45.083 C417.037,47.023 417.388,49.293 417.388,51.893 L417.388,51.893 Z M410.187,48.653 C410.187,47.733 410.058,46.852 409.798,46.013 C409.537,45.173 409.128,44.434 408.568,43.793 C408.007,43.153 407.298,42.644 406.437,42.263 C405.577,41.883 404.567,41.692 403.408,41.692 C401.248,41.692 399.418,42.344 397.918,43.643 C396.418,44.943 395.587,46.613 395.428,48.653 L410.187,48.653 L410.187,48.653 Z" fill="#50B7C8"></path>
    <path d="M444.027,45.113 C443.467,44.313 442.627,43.643 441.508,43.102 C440.387,42.563 439.247,42.293 438.087,42.293 C436.768,42.293 435.606,42.563 434.607,43.102 C433.607,43.643 432.777,44.354 432.117,45.232 C431.457,46.113 430.967,47.104 430.648,48.203 C430.327,49.304 430.167,50.413 430.167,51.533 C430.167,52.653 430.337,53.763 430.678,54.863 C431.017,55.964 431.526,56.953 432.207,57.833 C432.887,58.713 433.737,59.423 434.758,59.963 C435.777,60.503 436.967,60.773 438.327,60.773 C439.446,60.773 440.567,60.554 441.687,60.113 C442.807,59.673 443.707,59.033 444.388,58.192 L448.888,62.753 C447.687,64.033 446.157,65.023 444.297,65.723 C442.438,66.422 440.428,66.773 438.268,66.773 C436.146,66.773 434.137,66.433 432.237,65.753 C430.337,65.073 428.677,64.073 427.258,62.753 C425.837,61.433 424.717,59.833 423.898,57.953 C423.077,56.073 422.667,53.933 422.667,51.533 C422.667,49.214 423.077,47.113 423.898,45.232 C424.717,43.354 425.827,41.753 427.228,40.433 C428.627,39.113 430.258,38.093 432.117,37.373 C433.978,36.653 435.967,36.293 438.087,36.293 C440.207,36.293 442.258,36.693 444.237,37.493 C446.218,38.294 447.787,39.394 448.947,40.793 L444.027,45.113" fill="#50B7C8"></path>
    <path d="M453.747,20.573 L460.946,20.573 L460.946,49.253 L461.127,49.253 L472.047,37.133 L481.287,37.133 L468.807,50.153 L482.066,65.933 L472.526,65.933 L461.127,51.173 L460.946,51.173 L460.946,65.933 L453.747,65.933 L453.747,20.573" fill="#50B7C8"></path>
  </g>
</svg>