<?xml version="1.0" encoding="UTF-8" standalone="no"?>
<svg width="1001px" height="833px" viewBox="0 0 1001 833" version="1.1" xmlns="http://www.w3.org/2000/svg" xmlns:xlink="http://www.w3.org/1999/xlink">
    <!-- Generator: Sketch 3.6.1 (26313) - http://www.bohemiancoding.com/sketch -->
    <title>Untitled 2</title>
    <desc>Created with Sketch.</desc>
    <defs></defs>
    <g id="Page-1" stroke="none" stroke-width="1" fill="none" fill-rule="evenodd">
        <path d="M166.666667,749.647059 L166.666667,83.2941176 L416.666667,83.2941176 L416.666667,0 L166.666667,0 C122.666667,0 83.3333333,35.0298039 83.3333333,83.2941176 L83.3333333,333.176471 L0,416.470588 L83.3333333,499.764706 L83.3333333,749.647059 C83.3333333,793.626353 122.666667,832.941176 166.666667,832.941176 L416.666667,832.941176 L416.666667,749.647059 L166.666667,749.647059" id="Fill-1" fill="#000000"></path>
        <path d="M833.333333,749.647059 L833.333333,83.2941176 L583.333333,83.2941176 L583.333333,0 L833.333333,0 C877.333333,0 916.666667,35.0298039 916.666667,83.2941176 L916.666667,333.176471 L1000,416.470588 L916.666667,499.764706 L916.666667,749.647059 C916.666667,793.626353 877.333333,832.941176 833.333333,832.941176 L583.333333,832.941176 L583.333333,749.647059 L833.333333,749.647059" id="Fill-2" fill="#000000"></path>
        <path d="M693.648148,187.319216 L417.296296,463.550275 L330.055556,376.341333 L242.805556,463.550275 L417.296296,637.968157 L780.898148,274.528157 L693.648148,187.319216" id="Fill-3" fill="#000000"></path>
    </g>
</svg>